<?xml version="1.0" encoding="utf-8"?>
<!-- Generator: Adobe Illustrator 25.1.0, SVG Export Plug-In . SVG Version: 6.00 Build 0)  -->
<svg version="1.1" id="Layer_1" xmlns="http://www.w3.org/2000/svg" xmlns:xlink="http://www.w3.org/1999/xlink" x="0px" y="0px"
	 viewBox="0 0 283.5 283.5" style="enable-background:new 0 0 283.5 283.5;" xml:space="preserve">
<style type="text/css">
	.st0{fill:#222F3E;}
	.st1{font-family:'Poppins-Bold';}
	.st2{font-size:48px;}
	.st3{fill:#1DD1A1;}
	.st4{fill:#00A664;}
	.st5{fill:#10AC84;}
	.st6{fill:none;stroke:#231F20;stroke-linecap:round;stroke-miterlimit:10;}
	.st7{fill:#FBB03B;stroke:#231F20;stroke-miterlimit:10;}
	.st8{fill:#231F20;}
	.st9{fill:none;stroke:#231F20;stroke-miterlimit:10;}
</style>
<text transform="matrix(1 0 0 1 40.9332 259.3347)" class="st0 st1 st2">mone.io</text>
<g>
	<polygon class="st3" points="232.4,54.7 232.4,159.4 141.7,107.1 51.1,54.7 141.7,2.4 	"/>
	<polygon class="st4" points="232.4,159.4 141.7,211.7 51.1,159.4 141.7,107.1 	"/>
	<polygon class="st5" points="51.1,54.7 141.7,107.1 51.1,159.4 	"/>
	<polygon class="st6" points="232.4,159.4 232.4,54.7 141.7,2.4 51.1,54.7 51.1,159.4 141.7,211.7 	"/>
	<polyline class="st6" points="51.1,54.7 141.7,107.1 232.4,159.4 	"/>
	<line class="st6" x1="51.1" y1="159.4" x2="141.7" y2="107.1"/>
	<path class="st7" d="M152,58.7c4.4-8.6,14.8-12,23.4-7.6c8.6,4.4,12,14.8,7.6,23.4c-0.3,0.6-0.6,1.1-0.9,1.6L152,58.7z"/>
	<path class="st8" d="M164.5,65.9l5.3,3c0-0.1,0-0.2,0-0.3c-0.5-0.6-1-1.1-1.5-1.6l2.1-3.6c0.3,0.3,0.5,0.7,0.6,1.1
		c0.1,0.4,0.1,0.8,0,1.2l2.1,1.2c0.5-0.9,0.5-1.9,0.3-2.8c-0.4-0.9-1.1-1.7-2-2.2l0.8-1.4l-1.1-0.6l-0.8,1.4c-1-0.5-2.1-0.6-3.2-0.4
		c-1,0.2-1.8,0.8-2.3,1.7c-0.4,0.6-0.6,1.3-0.5,2.1C164.2,65.1,164.3,65.5,164.5,65.9z M167.6,62.6c0.5-0.2,1-0.2,1.4,0l-1.9,3.4
		c-0.4-0.4-0.7-0.8-0.8-1.3c-0.1-0.4,0-0.9,0.2-1.3C166.8,62.9,167.2,62.7,167.6,62.6L167.6,62.6z"/>
	<line class="st9" x1="147.8" y1="56.3" x2="186.3" y2="78.5"/>
</g>
</svg>
