<?xml version="1.0" encoding="utf-8"?>
<!-- Generator: Adobe Illustrator 25.1.0, SVG Export Plug-In . SVG Version: 6.00 Build 0)  -->
<svg version="1.1" id="Layer_1" xmlns="http://www.w3.org/2000/svg" xmlns:xlink="http://www.w3.org/1999/xlink" x="0px" y="0px"
	 viewBox="0 0 283.5 283.5" style="enable-background:new 0 0 283.5 283.5;" xml:space="preserve">
<style type="text/css">
	.st0{fill:#1DD1A1;}
	.st1{fill:#00A664;}
	.st2{fill:#10AC84;}
	.st3{fill:none;stroke:#231F20;stroke-width:2;stroke-linecap:round;stroke-miterlimit:10;}
	.st4{fill:#FBB03B;stroke:#231F20;stroke-width:2;stroke-miterlimit:10;}
	.st5{fill:#231F20;}
	.st6{fill:none;stroke:#231F20;stroke-width:2;stroke-miterlimit:10;}
</style>
<polygon class="st0" points="260.1,73.4 260.1,210.1 141.7,141.7 23.4,73.4 141.7,5.1 "/>
<polygon class="st1" points="260.1,210.1 141.7,278.4 23.4,210.1 141.7,141.7 "/>
<polygon class="st2" points="23.4,73.4 141.7,141.7 23.4,210.1 "/>
<polygon class="st3" points="260.1,210.1 260.1,73.4 141.7,5.1 23.4,73.4 23.4,210.1 141.7,278.4 "/>
<polyline class="st3" points="23.4,73.4 141.7,141.7 260.1,210.1 "/>
<line class="st3" x1="23.4" y1="210.1" x2="141.7" y2="141.7"/>
<path class="st4" d="M155.2,78.7c6.3-10.9,20.2-14.6,31.1-8.3c10.9,6.3,14.6,20.2,8.3,31.1l0,0L155.2,78.7z"/>
<path class="st5" d="M171.5,88.1l6.9,4l-0.3-0.4c-0.6-0.8-1.3-1.5-2-2.2l2.8-4.7c0.4,0.4,0.7,0.9,0.8,1.5c0.2,0.5,0.2,1,0,1.6
	l2.7,1.6c0.6-1.1,0.7-2.5,0.3-3.7c-0.4-1.2-1.3-2.3-2.4-3l1-1.8l-1.5-0.8l-1,1.8c-1.3-0.6-2.7-0.8-4.1-0.5c-1.3,0.3-2.4,1.1-3,2.3
	c-0.5,0.8-0.8,1.7-0.7,2.6C171,86.9,171.2,87.5,171.5,88.1z M175.6,83.6c0.6-0.2,1.3-0.2,1.9,0l-2.6,4.5c-0.5-0.5-0.8-1.1-1-1.7
	c-0.2-0.6-0.1-1.2,0.3-1.7C174.5,84.1,175,83.8,175.6,83.6L175.6,83.6z"/>
<line class="st6" x1="149.7" y1="75.4" x2="200" y2="104.5"/>
</svg>
